<svg xmlns="http://www.w3.org/2000/svg" viewBox="0 0 960 540">
<defs>
<linearGradient id="sky" x1="0" y1="0" x2="1" y2="1"><stop offset="0" stop-color="#e8f5ff"/><stop offset="1" stop-color="#d9f7e8"/></linearGradient>
<filter id="shadow" x="-20%" y="-20%" width="140%" height="140%"><feDropShadow dx="0" dy="10" stdDeviation="12" flood-color="#31556d" flood-opacity=".25"/></filter>
</defs>
<rect width="960" height="540" fill="url(#sky)"/>
<rect x="70" y="72" width="820" height="396" rx="30" fill="#fffaf0" stroke="#274c77" stroke-width="10" filter="url(#shadow)"/>
<path d="M148 368H812M148 272H812M148 176H812M244 104V436M364 104V436M484 104V436M604 104V436M724 104V436" stroke="#d3b36a" stroke-width="10" stroke-linecap="round" opacity=".85"/>
<g fill="#2f80ed"><rect x="142" y="136" width="92" height="72" rx="16"/><rect x="262" y="232" width="92" height="72" rx="16"/><rect x="622" y="328" width="92" height="72" rx="16"/></g>
<g fill="#0f9f6e"><rect x="382" y="136" width="92" height="72" rx="16"/><rect x="742" y="232" width="92" height="72" rx="16"/></g>
<g fill="#f59f00"><circle cx="244" cy="368" r="36"/><circle cx="604" cy="176" r="36"/></g>
<text x="480" y="76" text-anchor="middle" font-family="Arial, sans-serif" font-size="46" font-weight="800" fill="#14324a">小镇富翁 V2</text>
<text x="480" y="502" text-anchor="middle" font-family="Arial, sans-serif" font-size="26" font-weight="700" fill="#274c77">42 properties / 9 events / embedded V2 resources</text>
</svg>